<mxfile host="65bd71144e">
    <diagram id="A6M_0kUlQf8JloQpOc8q" name="Page-1">
        <mxGraphModel dx="1050" dy="662" grid="1" gridSize="10" guides="1" tooltips="1" connect="1" arrows="1" fold="1" page="1" pageScale="1" pageWidth="850" pageHeight="1100" math="0" shadow="0">
            <root>
                <mxCell id="0"/>
                <mxCell id="1" parent="0"/>
                <mxCell id="3" value="&lt;p style=&quot;line-height: 1.1&quot;&gt;Comments&lt;/p&gt;&lt;p style=&quot;line-height: 1.1&quot;&gt;&lt;br&gt;&lt;/p&gt;" style="shape=process;whiteSpace=wrap;html=1;backgroundOutline=1;align=left;" vertex="1" parent="1">
                    <mxGeometry x="160" y="460" width="380" height="170" as="geometry"/>
                </mxCell>
                <mxCell id="4" value="SearchBar" style="rounded=0;whiteSpace=wrap;html=1;" vertex="1" parent="1">
                    <mxGeometry x="40" y="10" width="690" height="60" as="geometry"/>
                </mxCell>
                <mxCell id="6" value="Related&lt;br&gt;Vids" style="rounded=1;whiteSpace=wrap;html=1;fontSize=30;rotation=90;" vertex="1" parent="1">
                    <mxGeometry x="473.75" y="291.25" width="542.5" height="150" as="geometry"/>
                </mxCell>
                <mxCell id="10" value="Video Player" style="rounded=0;whiteSpace=wrap;html=1;fontSize=30;" vertex="1" parent="1">
                    <mxGeometry x="80" y="110" width="540" height="280" as="geometry"/>
                </mxCell>
                <mxCell id="11" value="Title/VideoDescription" style="rounded=0;whiteSpace=wrap;html=1;fontSize=30;" vertex="1" parent="1">
                    <mxGeometry x="80" y="390" width="320" height="60" as="geometry"/>
                </mxCell>
            </root>
        </mxGraphModel>
    </diagram>
</mxfile>